<svg xmlns="http://www.w3.org/2000/svg" viewBox="0 0 50 50"><path fill="#BBBBBC" d="M25.7 46.5h-4.8c-1.5 0-2.4-.9-2.4-2.4V28.6h-3.8c-1.6 0-2.4-.9-2.4-2.4V20c0-1.5.9-2.4 2.5-2.4h3.7v-3.8c0-2.2.6-4.1 1.6-5.8 1.4-2.4 3.6-4 6.4-4.7 1.1-.3 2.2-.4 3.5-.4h4.7c1.5 0 2.4.9 2.4 2.4v5.8c0 1.5-.9 2.4-2.4 2.4h-1c-1 0-2.1 0-3.1.1-.6 0-.6.2-.7.3-.1.2-.2.4-.2.6v3.3h4.6c1.6 0 2.4.9 2.4 2.4v6.2c0 1.5-.9 2.4-2.4 2.4h-4.7V44c0 1.6-.9 2.5-2.5 2.5h-1.4zm-4.5-2.6h6V26h7.1v-5.8h-7.1v-6c0-.7.2-1.3.4-1.7.4-.7 1.2-1.7 2.9-1.7 1.1 0 2.1-.1 3.2-.1h.8V5.4H30c-1.1 0-2 .1-2.9.3-2.2.5-3.8 1.7-4.8 3.5-.8 1.3-1.2 2.8-1.2 4.6v6.3h-6.2V26h6.2l.1 17.9z"></path></svg>