<svg xmlns="http://www.w3.org/2000/svg" viewBox="0 0 50 50"><path fill="#BBBBBC" d="M25 44.5h-8.7c-5.2 0-9.6-3.6-10.6-8.7-.1-.6-.2-1.3-.2-1.9V16.1c0-4.8 3.4-9.1 8.1-10.3.9-.2 1.8-.3 2.8-.3h17.5c5.1 0 9.6 3.8 10.5 8.9.1.6.2 1.3.2 1.9v17.5c0 5.2-3.8 9.7-8.9 10.5-.6.1-1.2.2-1.8.2H25zM41.6 25v-8.6-.1c0-.5 0-1-.1-1.5-.7-3.8-3.9-6.5-7.7-6.5H16.3c-.7 0-1.3.1-2 .3-3.5.9-5.8 4-5.8 7.6v17.5c0 .3 0 .7.1 1 .5 3.9 3.8 6.9 7.7 6.9H34c.9 0 1.8-.2 2.7-.5 3.1-1.2 5-4 5-7.3-.1-3-.1-5.9-.1-8.8z"></path><path fill="#BBBBBC" d="M35.4 25c0 5.7-4.7 10.4-10.4 10.4S14.6 30.7 14.6 25 19.3 14.6 25 14.6 35.4 19.3 35.4 25zm-2.9 0c0-4.1-3.3-7.5-7.5-7.5-4.1 0-7.5 3.3-7.5 7.4 0 4.1 3.3 7.5 7.5 7.5 4.1.1 7.5-3.3 7.5-7.4zM33.8 14.2c0-1.1.9-2 2-2s2 .9 2 2-.9 2-2 2-2-.9-2-2z"></path></svg>