<svg xmlns="http://www.w3.org/2000/svg" viewBox="0 0 50 50"><path fill="#BBBBBC" d="M18.9 38c-1.6 0-3.3-.3-4.9-.8-5-1.7-8.8-5.6-10.2-10.6-1.6-5.6-.3-10.8 3.6-14.9 2.8-3 5.8-5.9 8-8.1.5-.5 1.2-.9 1.8-1.1l.6-.3.3-.2h1.8l.2.1c2.6 1.1 3.7 2.7 3.7 5.1 0 1.6-1.1 2.7-1.7 3.3-1.1 1.1-2.1 2.2-3.2 3.3-1.2 1.2-2.4 2.4-3.5 3.6-.5.5-1 1-1.4 1.6-1.8 2.4-1.4 5.8 1 7.9 2.1 1.9 5.5 1.9 7.7-.1.6-.5 1.2-1.1 1.8-1.7.6-.6 1.2-1.2 1.8-1.7 2.1-1.9 4.7-1.9 6.7.1 1.9 1.9 1.9 4.7 0 6.7-.3.3-.6.6-.8.9-1.2 1.3-2.5 2.7-4 3.9-2.8 1.9-6 3-9.3 3zm-.1-33.4c-.1.1-.3.2-.4.2-.4.2-.9.4-1.1.7-2.2 2.2-5.2 5-8 8C6 17 5 21.1 6.3 25.8c1.2 4.2 4.3 7.5 8.4 8.9 4.1 1.4 8.4.6 11.8-2 1.3-1 2.5-2.3 3.7-3.6l.9-.9c.9-.9.9-2.1 0-3-.9-1-2-1-3 0-.6.5-1.2 1.1-1.8 1.7-.6.6-1.2 1.2-1.9 1.8-3.2 2.9-8.1 2.9-11.2 0-3.3-3-3.9-7.8-1.3-11.4.5-.7 1.1-1.3 1.6-1.8 1.2-1.2 2.4-2.4 3.5-3.6 1.1-1.1 2.1-2.2 3.2-3.3.6-.6.9-1 .9-1.5 0-1.1-.2-1.8-1.8-2.5h-.5z"></path><path fill="#BBBBBC" d="M29.9 47.2c-.8 0-1.5-.2-2.3-.6-2-1-2.9-3.2-2.5-5.3.2-1 .8-1.8 1.3-2.3 1-1.1 2.1-2.2 3.2-3.3 1.5-1.6 3.1-3.2 4.7-4.9 1.5-1.6 2-3.8 1.4-5.8-.6-1.9-2-3.4-3.9-3.9-2.3-.6-4.2-.2-5.8 1.4-1 1-2.3 2.2-3.5 3.4-1.9 1.7-4.6 1.7-6.5-.1-1.9-1.8-2-4.7-.2-6.6l.5-.5c1.3-1.4 2.7-2.9 4.3-4.2 4.1-3.2 9.5-4.2 14.4-2.6s8.7 5.6 10.2 10.6c.3 1 .4 2.1.5 2.8 0 .3.1.5.1.7v.2c-.1 4.7-1.5 8.3-4.4 11.2-3.1 3.2-5.7 5.7-8.1 8.1-1 1.2-2.2 1.7-3.4 1.7zm0-28.9c.8 0 1.7.1 2.6.4 2.8.8 4.9 2.9 5.7 5.7.8 2.9.1 6-2 8.3-1.5 1.7-3.2 3.3-4.7 4.9-1.1 1.1-2.1 2.2-3.2 3.3-.3.4-.6.8-.7 1-.2 1 .2 1.9 1.1 2.4 1 .5 1.7.4 2.6-.4l8.1-8.1c2.4-2.4 3.5-5.2 3.6-9.3 0-.2-.1-.4-.1-.7-.1-.7-.2-1.6-.5-2.5-1.2-4.3-4.3-7.5-8.5-8.8-4.1-1.3-8.5-.5-12 2.2-1.4 1.1-2.7 2.5-4 3.9l-.5.5c-.8.9-.7 2.1.1 2.9.9.9 2 .9 2.9.1 1.2-1.1 2.4-2.3 3.4-3.3 1.9-1.7 3.9-2.5 6.1-2.5z"></path></svg>