<svg xmlns="http://www.w3.org/2000/svg" viewBox="0 0 50 50"><path fill="#BBBBBC" d="M25 46.3C13.3 46.3 3.7 36.8 3.7 25 3.7 13.3 13.2 3.7 25 3.6h.1c11.7 0 21.2 9.5 21.3 21.2 0 5.7-2.2 11-6.2 15.1-4.1 4.2-9.5 6.4-15.2 6.4zm-.1-40C14.6 6.3 6.3 14.8 6.3 25c0 10.3 8.4 18.7 18.7 18.7 5 0 9.7-2 13.3-5.6 3.6-3.6 5.5-8.3 5.4-13.2C43.6 14.6 35.3 6.3 25 6.3h-.1zm8.3 28.6c-.2 0-.5-.1-.7-.2-.1 0-8.3-4.9-16.5-.9-.7.3-1.4.1-1.8-.6-.3-.7-.1-1.4.6-1.8 9.5-4.7 18.7.7 19 1 .6.4.8 1.2.4 1.8-.2.5-.6.7-1 .7zm2.8-4.3c-.3 0-.7-.1-.9-.4-.3-.3-7.4-6.8-21-2-.7.2-1.4-.1-1.7-.8-.2-.7.1-1.4.8-1.7 15.2-5.3 23.4 2.3 23.7 2.6.5.5.5 1.3 0 1.9-.2.2-.6.4-.9.4zm1.8-5.2c-.3 0-.6-.1-.9-.3-.4-.4-10.6-8.8-23.2-2.4-.6.3-1.4.1-1.8-.6-.3-.6-.1-1.4.6-1.8 14.3-7.2 26 2.7 26.1 2.8.5.5.6 1.3.1 1.9-.2.3-.5.4-.9.4z"></path></svg>