<svg xmlns="http://www.w3.org/2000/svg" viewBox="0 0 50 50"><path fill="#BBBBBC" d="M28.2 45.7c-2.2 0-4.4-.4-6.5-1.3-3.7-1.6-5.7-4.5-5.7-8.5V26v-3.1h-4.3v-2.6-3.8c0-.9.8-1.6 1.5-1.9 3.6-1.4 5.6-4.1 6.3-8.2.1-.3.1-.6.2-.8 0-.1.1-.2.1-.3l.3-.9h7.6V14h9.1v8.7h-9.1v2c0 3 0 6.1.1 9.1 0 .7.2 1.7.8 2.3.4.4 1.1.6 2.1.5 1.3-.1 2.6-.4 4-.8.7-.2 1.3-.3 2-.5l1.6-.3v6.6c0 .8-.6 1.6-1.3 2-3.2 1.4-6 2.1-8.8 2.1zM14.4 20.2h4.3v15.7c0 2.9 1.3 4.9 4 6 4 1.6 8.2 1.4 12.9-.6v-2.9c-.1 0-.2.1-.3.1-1.4.4-2.9.7-4.5.8-2.1.1-3.3-.6-4-1.2-1-.9-1.6-2.4-1.6-4.2-.1-3.1-.1-6.2-.1-9.2v-2.3c0-.3 0-.6.1-.9 0-.1 0-.2.1-.3l.2-1.1h8.7v-3.5H25V6.9h-3c-.8 4.8-3.4 8.2-7.7 10 .1 1.1.1 2.2.1 3.3z"></path></svg>