<svg xmlns="http://www.w3.org/2000/svg" viewBox="0 0 50 50"><path fill="#BBBBBC" d="M18.6 42.2c-1.2 0-2.4-.1-3.5-.3-3.1-.5-6-1.5-8.7-3.2 0 0-.1-.1-.2-.1l-.1-.1L3 36.2l3.8.3c3 .3 5.8-.2 8.3-1.5-2.4-.9-4.2-2.7-5.3-5.4l-.7-1.8.7.1c-.3-.3-.5-.6-.8-.9-1.3-1.6-1.9-3.4-1.9-5.5v-1.6l1.2.4c-1.5-2.5-1.5-5.4 0-8.6l.7-1.5 1.1 1.3c3.7 4.4 8.2 6.8 13.7 7.5-.3-4.5 3-8.6 7.5-9.2 2.7-.3 5.1.4 7.1 2.2 1.4-.3 2.6-.8 3.6-1.4.1 0 .2-.1.3-.1l2.5-1.3-.8 2.6c-.2.7-.5 1.3-.9 1.9.1 0 .3-.1.4-.1l3.4-1.2-2.2 2.9c-.1.1-.2.2-.2.3-.2.3-.4.6-.7.9-.8.8-1.6 1.6-2.6 2.5.1 4.7-1.2 9.1-3.8 13.1-3.3 5.2-8.1 8.4-14.1 9.7-1.5.3-3.1.4-4.7.4zm-7.5-3.5c1.4.5 2.8.9 4.3 1.1 2.5.4 5.1.3 7.6-.2 5.4-1.2 9.7-4.1 12.7-8.8 2.4-3.7 3.5-7.7 3.4-12.1 0-.7.3-1.1.6-1.4.3-.3.6-.5.8-.8-.2 0-.4.1-.6.1l-4.2.4 3.5-2.4c.4-.3.7-.5 1-.8-.5.1-.9.3-1.4.4-.6.2-1.2 0-1.6-.4-1.6-1.5-3.3-2.1-5.5-1.8-3.4.4-5.9 3.5-5.6 6.9 0 .3.1.5.1.8l.2 1.7-1.3-.1c-6-.4-11.1-2.8-15.3-7-.8 2.8 0 5.2 2.5 7.3l2.9 2.4-3.9-.5c-.5-.1-1.1-.2-1.7-.3.2.9.6 1.7 1.2 2.5.9 1.2 2.2 2 3.8 2.3l4.2 1-4.2 1.1c-.6.2-1.2.3-1.8.3 1.2 1.8 2.9 2.8 5.4 3l2.9.3-2.3 1.7c-2.5 1.8-5 2.9-7.7 3.3z"></path></svg>