<svg version="1.1" id="Layer_1" xmlns="http://www.w3.org/2000/svg" xmlns:xlink="http://www.w3.org/1999/xlink" x="0px" y="0px" viewBox="0 0 50 50" style="enable-background:new 0 0 50 50;" xml:space="preserve"> <path fill="#BBBBBC" d="M24.7,44.7L24.7,44.7l-2.3-0.1c-1.9,0-4-0.1-6-0.2c-1.4,0-2.8-0.1-4.6-0.3l-0.1,0c-1.4-0.1-2.9-0.2-4.4-0.6 c-2.9-0.8-4.8-2.9-5.4-6.2c-0.3-1.6-0.5-3.3-0.6-4.8c-0.2-3.4-0.3-6.5-0.3-9.4c0.1-2.3,0.2-4.7,0.3-6.4c0.1-1.5,0.2-3.2,0.6-4.8 c0.8-3.1,2.7-5.1,5.5-5.8c1.5-0.3,2.9-0.4,4.3-0.5c4.5-0.3,9.3-0.5,14.7-0.4c2.3,0,4.9,0.1,7.8,0.2c1.8,0.1,3.5,0.2,5.2,0.4 c1.3,0.1,2.5,0.2,3.7,0.6c2.6,0.8,4.4,2.9,5,5.9c0.3,1.4,0.5,2.8,0.6,4c0.2,2.8,0.4,5.7,0.4,8.8c0,2.4-0.1,4.8-0.3,7.1 c-0.1,1.6-0.3,3.6-0.7,5.4c-0.6,3-2.3,5-4.9,5.9c-0.8,0.3-1.7,0.4-2.5,0.5c-3.2,0.4-6.3,0.5-9.2,0.6c-1.5,0-2.9,0.1-4.5,0.1 L24.7,44.7z M24.5,7.8c-4.5,0-8.6,0.1-12.6,0.4c-1.4,0.1-2.7,0.2-4,0.5c-1.9,0.4-3.1,1.7-3.7,4c-0.4,1.4-0.5,2.9-0.6,4.3 c-0.1,1.7-0.2,4-0.3,6.3c-0.1,2.8,0,5.8,0.2,9.2c0.1,1.5,0.2,3,0.5,4.5c0.5,2.4,1.7,3.8,3.6,4.3c1.3,0.3,2.6,0.4,4,0.5l0.1,0 c1.7,0.1,3.2,0.2,4.5,0.2c2,0.1,4.1,0.1,6,0.2l2.3,0.1l2.3,0c1.6,0,3.1-0.1,4.5-0.1c2.9-0.1,5.9-0.2,9-0.6c0.7-0.1,1.4-0.2,2-0.4 c1.7-0.6,2.8-1.9,3.2-4c0.4-1.7,0.5-3.5,0.6-5.1c0.2-2.3,0.2-4.6,0.2-6.9c0-3.1-0.1-5.9-0.3-8.6c-0.1-1.1-0.2-2.4-0.5-3.7 c-0.5-2.2-1.6-3.5-3.3-4c-1-0.3-2-0.4-3.2-0.5C37.5,8.2,35.8,8,34.1,8c-2.9-0.1-5.4-0.2-7.7-0.2C25.8,7.8,25.1,7.8,24.5,7.8z"></path>
<path fill="#BBBBBC" d="M19.2,34V16l15.6,9L19.2,34z M21.7,20.3v9.3l8.1-4.7L21.7,20.3z"></path></svg>